<svg width="211" height="39" xmlns="http://www.w3.org/2000/svg"><g fill="none" fill-rule="nonzero"><path d="M29.7 33.3l5 5a2.5 2.5 0 1 0 3.6-3.6l-5-5a2.5 2.5 0 1 0-3.6 3.6M5 14h12v-4H5zM20 14h8v-4h-8zM25 21h8v-4h-8zM3 21h12v-4H3z" fill="#485A62"/><path fill="#E31A3E" d="M17 21h5v-4h-5z"/><path fill="#485A62" d="M5 29h8v-4H5zM15 29h12v-4H15z"/><path d="M19.5 39a19.5 19.5 0 1 1 0-39 19.5 19.5 0 0 1 0 39zm0-4.9a14.6 14.6 0 1 0 0-29.2 14.6 14.6 0 0 0 0 29.2zM197 10h3l1 11.9 2.2-10.4h2l2 10.3.8-11.8h3l-2.1 18h-2.5L204 17l-2.3 11H199l-2.2-18zM184 10h11.6v2.8h-8.5v4.4h7v2.9h-7v5.1h8.4V28H184zM170.6 10h10v2.7h-3.5v12.7h3.6V28h-10.2v-2.7h3.4V12.7h-3.3zM154.2 10h3.3l3.8 12.8 3.5-12.8h3.3l-5.7 18H160l-5.7-18zM141 10h11.5v2.8h-8.4v4.4h7v2.9h-7v5.1h8.4V28H141zM127 9.9h5.5c1.1 0 2 .2 2.9.5.8.2 1.4.6 1.9 1 .5.5.9 1.1 1.1 1.8.2.6.3 1.4.3 2.2 0 .5 0 1-.2 1.5a5.6 5.6 0 0 1-3.2 3.3l4.2 7.8H136l-3.7-7.4h-2V28H127V9.9zm3 3v4.9h2.5c.5 0 1 0 1.3-.2l.8-.5.5-.7.2-1a3 3 0 0 0-.7-2c-.4-.3-1.1-.5-2-.5H130zM98 10h11.6v2.9H101v4.4h7v2.9h-7v5.1h8.4V28H98zM84 10h4.5c.8 0 1.5 0 2.1.2.5 0 1 .2 1.6.4l1.3.8 1 1.1c.5.8 1 1.8 1.3 3 .7 2.4.7 5 0 7.4-.5 2.1-2 3.8-4 4.6-1 .3-2.2.5-3.6.5h-4.3V10h.1zm3 2.8v12.8h1.1c1.7 0 3-.6 3.8-1.7.8-1 1.2-2.6 1.2-4.6 0-1-.1-2-.3-2.7-.2-.8-.4-1.5-.8-2a5 5 0 0 0-1.5-1.4 4 4 0 0 0-2-.4H87zM75.6 28.5c-1 0-2-.2-2.8-.7a6.3 6.3 0 0 1-2.1-2c-.6-.8-1-1.8-1.3-3-.7-2.5-.7-5.2 0-7.7.3-1.1.7-2.1 1.3-3 .6-.8 1.3-1.4 2.1-1.9.9-.4 1.8-.7 2.8-.7 1.8 0 3.5 1 4.6 2.4a9 9 0 0 1 1.5 3c.6 2.4.7 4.9.3 7.3l-.8 2.3c-.3.8-.7 1.4-1 1.9a6 6 0 0 1-4.6 2.1zm-3.4-9.7l.3 3c.1.8.4 1.5.7 2 .3.6.6 1 1 1.3.5.3 1 .5 1.4.5.4 0 .9-.1 1.2-.3.4-.3.8-.6 1-1.2.4-.5.6-1.2.8-2 .4-2 .4-4.2 0-6.2-.2-.8-.5-1.5-.8-2a3 3 0 0 0-1-1.1 2 2 0 0 0-1.2-.4l-1.3.3c-.4.2-.7.6-1 1a6 6 0 0 0-.8 2l-.3 3v.1zM65.2 15.1L65 15v-.5l-.1-.3c-.3-.7-.7-1.2-1.1-1.5-.5-.4-1-.5-1.8-.5-.5 0-1 .1-1.5.5a4 4 0 0 0-1.2 1.3c-1 2.4-1.2 5.1-.7 7.7l.8 2.2c.3.6.7 1 1.2 1.4.5.3 1 .5 1.6.5.7 0 1.3-.2 1.8-.6.6-.5 1-1 1.4-1.8L68 25a7 7 0 0 1-2.5 2.6c-1 .6-2 1-3.1 1-1 0-2-.3-3-.6-.8-.4-1.6-1-2.2-1.8a8.4 8.4 0 0 1-1.6-3c-.3-1.1-.5-2.5-.5-4.1 0-1.2 0-2.2.3-3.2.2-1 .5-1.7.8-2.4a7.5 7.5 0 0 1 2.7-3c1-.6 2.1-1 3.3-1 2 0 3.8 1 5 2.5l1 1.6-3 1.5z" fill="#485A62"/></g></svg>